<mxfile host="Electron" agent="Mozilla/5.0 (Macintosh; Intel Mac OS X 10_15_7) AppleWebKit/537.36 (KHTML, like Gecko) draw.io/25.0.2 Chrome/128.0.6613.186 Electron/32.2.5 Safari/537.36" version="25.0.2">
  <diagram name="ページ1" id="RzE77F1huVSBpnxGkCJ2">
    <mxGraphModel dx="456" dy="343" grid="1" gridSize="10" guides="1" tooltips="1" connect="1" arrows="1" fold="1" page="1" pageScale="1" pageWidth="827" pageHeight="1169" math="0" shadow="0">
      <root>
        <mxCell id="0" />
        <mxCell id="1" parent="0" />
        <mxCell id="aMajddHrB-2l_erlXQCZ-67" style="edgeStyle=orthogonalEdgeStyle;rounded=0;orthogonalLoop=1;jettySize=auto;html=1;exitX=0;exitY=0.75;exitDx=0;exitDy=0;exitPerimeter=0;endArrow=none;endFill=0;" edge="1" parent="1" source="aMajddHrB-2l_erlXQCZ-66">
          <mxGeometry relative="1" as="geometry">
            <mxPoint x="120" y="410.11764705882354" as="targetPoint" />
          </mxGeometry>
        </mxCell>
        <mxCell id="aMajddHrB-2l_erlXQCZ-71" value="P" style="edgeLabel;html=1;align=center;verticalAlign=middle;resizable=0;points=[];" vertex="1" connectable="0" parent="aMajddHrB-2l_erlXQCZ-67">
          <mxGeometry x="0.9331" y="-1" relative="1" as="geometry">
            <mxPoint as="offset" />
          </mxGeometry>
        </mxCell>
        <mxCell id="aMajddHrB-2l_erlXQCZ-73" style="edgeStyle=orthogonalEdgeStyle;rounded=0;orthogonalLoop=1;jettySize=auto;html=1;exitX=1;exitY=0.25;exitDx=0;exitDy=0;exitPerimeter=0;endArrow=none;endFill=0;" edge="1" parent="1" source="aMajddHrB-2l_erlXQCZ-66">
          <mxGeometry relative="1" as="geometry">
            <mxPoint x="290" y="370" as="targetPoint" />
          </mxGeometry>
        </mxCell>
        <mxCell id="aMajddHrB-2l_erlXQCZ-74" value="×" style="edgeLabel;html=1;align=center;verticalAlign=middle;resizable=0;points=[];" vertex="1" connectable="0" parent="aMajddHrB-2l_erlXQCZ-73">
          <mxGeometry x="0.9805" relative="1" as="geometry">
            <mxPoint as="offset" />
          </mxGeometry>
        </mxCell>
        <mxCell id="aMajddHrB-2l_erlXQCZ-66" value="" style="verticalLabelPosition=bottom;shadow=0;dashed=0;align=center;html=1;verticalAlign=top;shape=mxgraph.electrical.logic_gates.d_type_flip-flop;" vertex="1" parent="1">
          <mxGeometry x="150" y="350" width="100" height="80" as="geometry" />
        </mxCell>
        <mxCell id="aMajddHrB-2l_erlXQCZ-72" style="edgeStyle=orthogonalEdgeStyle;rounded=0;orthogonalLoop=1;jettySize=auto;html=1;exitX=0;exitY=0.25;exitDx=0;exitDy=0;exitPerimeter=0;entryX=1;entryY=0.75;entryDx=0;entryDy=0;entryPerimeter=0;endArrow=none;endFill=0;" edge="1" parent="1" source="aMajddHrB-2l_erlXQCZ-66" target="aMajddHrB-2l_erlXQCZ-66">
          <mxGeometry relative="1" as="geometry">
            <Array as="points">
              <mxPoint x="130" y="370" />
              <mxPoint x="130" y="320" />
              <mxPoint x="270" y="320" />
              <mxPoint x="270" y="410" />
            </Array>
          </mxGeometry>
        </mxCell>
        <mxCell id="aMajddHrB-2l_erlXQCZ-75" value="" style="endArrow=none;html=1;rounded=0;entryX=0;entryY=0.25;entryDx=0;entryDy=0;entryPerimeter=0;" edge="1" parent="1">
          <mxGeometry width="50" height="50" relative="1" as="geometry">
            <mxPoint x="270" y="410" as="sourcePoint" />
            <mxPoint x="320" y="410" as="targetPoint" />
          </mxGeometry>
        </mxCell>
        <mxCell id="aMajddHrB-2l_erlXQCZ-77" style="edgeStyle=orthogonalEdgeStyle;rounded=0;orthogonalLoop=1;jettySize=auto;html=1;exitX=0;exitY=0.75;exitDx=0;exitDy=0;exitPerimeter=0;endArrow=none;endFill=0;" edge="1" parent="1">
          <mxGeometry relative="1" as="geometry">
            <mxPoint x="300" y="450" as="targetPoint" />
            <mxPoint x="320" y="430" as="sourcePoint" />
          </mxGeometry>
        </mxCell>
        <mxCell id="aMajddHrB-2l_erlXQCZ-78" value="CLK" style="edgeLabel;html=1;align=center;verticalAlign=middle;resizable=0;points=[];" vertex="1" connectable="0" parent="aMajddHrB-2l_erlXQCZ-77">
          <mxGeometry x="0.9783" relative="1" as="geometry">
            <mxPoint as="offset" />
          </mxGeometry>
        </mxCell>
        <mxCell id="aMajddHrB-2l_erlXQCZ-79" style="edgeStyle=orthogonalEdgeStyle;rounded=0;orthogonalLoop=1;jettySize=auto;html=1;exitX=1;exitY=0.5;exitDx=0;exitDy=0;exitPerimeter=0;endArrow=none;endFill=0;" edge="1" parent="1">
          <mxGeometry relative="1" as="geometry">
            <mxPoint x="429.9999999999999" y="419.9433962264151" as="targetPoint" />
            <mxPoint x="390" y="420" as="sourcePoint" />
            <Array as="points">
              <mxPoint x="390" y="420" />
            </Array>
          </mxGeometry>
        </mxCell>
        <mxCell id="aMajddHrB-2l_erlXQCZ-80" value="CLK&#39;" style="edgeLabel;html=1;align=center;verticalAlign=middle;resizable=0;points=[];" vertex="1" connectable="0" parent="aMajddHrB-2l_erlXQCZ-79">
          <mxGeometry x="0.8681" relative="1" as="geometry">
            <mxPoint as="offset" />
          </mxGeometry>
        </mxCell>
        <mxCell id="aMajddHrB-2l_erlXQCZ-83" value="" style="verticalLabelPosition=bottom;shadow=0;dashed=0;align=center;html=1;verticalAlign=top;shape=mxgraph.electrical.logic_gates.logic_gate;operation=and;" vertex="1" parent="1">
          <mxGeometry x="320" y="400" width="70" height="40" as="geometry" />
        </mxCell>
      </root>
    </mxGraphModel>
  </diagram>
</mxfile>
